<svg width="800" height="800" viewBox="0 0 800 800" fill="none" xmlns="http://www.w3.org/2000/svg">
<g clip-path="url(#clip0_1_16)">
<path d="M542.379 282.55L454.03 311.399L377.168 345.322L355.665 350.999C350.188 356.208 344.446 361.484 338.236 366.826C331.424 372.702 325.08 378.045 320.205 381.918C314.796 386.192 306.782 394.205 302.709 399.28C296.632 406.892 291.824 414.972 289.754 421.183C286.081 432.403 287.885 443.755 294.963 454.24C304.045 467.595 322.142 481.217 343.244 490.5C353.996 495.242 372.093 501.318 385.715 504.723C408.352 510.467 452.16 516.677 476.267 517.613C481.141 517.813 487.686 517.813 487.952 517.613C488.487 517.278 492.227 510.133 496.568 501.252C511.393 471.001 522.077 442.62 527.887 418.379C531.359 403.689 534.097 384.122 535.899 360.951C536.367 354.473 536.567 332.77 536.166 325.423C535.565 313.404 534.496 303.654 532.828 294.105C532.561 292.702 532.493 291.433 532.627 291.367C532.894 291.166 533.695 290.899 544.58 287.76L542.377 282.552V282.551H542.379V282.55ZM522.212 294.371C523.013 294.371 525.149 314.871 525.683 327.827C525.817 330.565 525.749 332.368 525.616 332.368C525.083 332.368 514.331 326.025 506.652 321.217C499.974 317.009 487.287 308.595 485.283 306.992C484.614 306.525 484.681 306.458 490.158 304.588C499.439 301.449 521.477 294.371 522.212 294.371ZM477.202 309.196C477.804 309.196 479.339 310.063 483.012 312.334C496.768 320.948 515.467 331.366 523.48 334.839C525.95 335.908 526.217 335.506 520.542 339.38C508.388 347.661 493.228 355.807 474.663 364.021C471.392 365.49 468.654 366.625 468.588 366.625C468.455 366.625 468.854 364.957 469.388 362.953C473.862 346.324 476.4 329.496 476.535 316.007C476.601 309.328 476.601 309.328 477.202 309.129C477.068 309.196 477.135 309.196 477.202 309.196ZM467.92 312.735C468.32 313.135 468.053 328.094 467.519 332.167C466.317 341.917 464.447 350.999 461.376 361.217C460.642 363.686 459.973 365.757 459.841 365.89C459.572 366.224 450.423 357.276 447.419 353.803C442.209 347.793 438.137 341.783 435.132 335.907C433.596 332.901 431.192 327.026 431.392 326.825C432.46 326.09 467.653 312.468 467.92 312.735ZM424.246 329.897C424.313 329.897 424.379 329.897 424.447 329.963C424.58 330.097 425.048 331.166 425.449 332.367C427.585 338.177 432.393 346.725 436.534 352.201C441.075 358.211 447.019 364.621 451.959 368.828C453.563 370.164 455.031 371.432 455.231 371.633C455.632 372.034 455.766 371.967 444.88 376.108C432.26 380.915 418.503 385.723 402.743 390.798C398.978 392.012 395.217 393.236 391.459 394.471C390.857 394.672 391.058 394.338 392.794 391.6C400.607 379.379 412.493 355.406 419.171 338.444C420.307 335.506 421.442 332.568 421.643 331.9C421.91 330.965 422.243 330.631 423.111 330.163C423.578 330.031 424.046 329.897 424.246 329.897ZM410.892 335.439C411.092 335.573 407.686 342.718 404.347 349.262C397.869 361.883 390.791 374.305 381.308 389.397C379.706 392.001 378.17 394.405 377.969 394.672C377.636 395.14 377.502 395.006 376.433 392.936C374.163 388.462 372.292 382.718 371.291 377.443C370.289 372.234 370.49 363.152 371.625 357.543C372.493 353.403 372.427 353.47 374.43 352.468C382.977 348.128 410.624 335.172 410.892 335.439ZM526.085 340.114V342.919C526.085 357.811 524.482 378.245 522.144 393.137C521.743 395.741 521.408 397.877 521.343 397.945C521.343 397.945 519.406 397.411 517.136 396.742C507.119 393.604 496.234 388.996 486.417 383.588C479.939 380.048 470.524 374.238 470.791 373.97C470.857 373.904 473.662 372.435 476.934 370.699C490.024 363.888 502.577 356.542 513.463 349.263C517.536 346.525 523.679 342.118 525.016 340.916L526.085 340.114ZM360.473 359.88C360.74 359.88 360.673 360.414 360.272 362.818C360.005 364.555 359.671 367.76 359.539 369.963C359.003 379.713 360.607 386.926 365.415 396.808C366.75 399.547 367.82 401.817 367.752 401.883C367.284 402.284 323.078 415.24 309.187 419.046C305.047 420.181 301.441 421.183 301.173 421.249C300.706 421.383 300.639 421.317 300.839 420.18C302.375 410.365 309.855 397.543 320.272 386.724C327.217 379.512 332.76 375.306 342.242 369.896C349.054 366.023 359.538 360.214 360.339 359.946C360.34 359.88 360.406 359.88 360.473 359.88ZM464.648 378.511C464.714 378.445 466.317 379.313 468.253 380.448C482.544 388.729 502.444 396.409 519.405 400.348L520.942 400.683L518.804 401.883C509.923 406.825 480.741 418.979 450.892 430.131C446.55 431.733 442.277 433.337 441.474 433.67C440.673 434.004 439.938 434.205 439.938 434.138C439.938 434.07 441.141 431.733 442.676 428.862C451.023 413.236 459.438 394.204 463.712 380.982C464.247 379.713 464.58 378.579 464.648 378.511ZM454.03 381.984C454.098 382.052 453.563 383.453 452.895 385.056C447.085 399.146 439.472 414.506 429.722 431.734C427.252 436.142 425.181 439.682 425.114 439.682C425.048 439.682 423.044 438.479 420.64 437.01C406.482 428.329 393.928 417.644 385.715 407.293L384.513 405.824L390.589 404.155C412.359 398.212 430.856 391.801 449.221 383.922C451.826 382.853 453.964 381.984 454.03 381.984ZM520.008 405.023C520.074 406.559 516.668 420.315 513.863 430.264C511.526 438.612 509.522 445.157 505.85 456.709C504.247 461.785 502.846 465.991 502.778 465.991C502.712 465.991 502.311 465.924 501.91 465.792C482.077 462.184 464.314 457.176 447.619 450.499C442.944 448.629 436.267 445.623 435.866 445.29C435.733 445.155 439.74 443.286 444.815 441.082C475.199 427.793 506.719 412.701 517.536 406.225C518.805 405.423 519.807 405.023 520.008 405.023ZM367.685 410.232C367.819 410.365 359.338 422.586 347.451 439.213C343.311 445.023 338.503 451.834 336.7 454.372C334.897 456.91 332.159 460.917 330.623 463.321L327.817 467.661L324.812 465.124C321.273 462.185 315.13 455.908 312.392 452.436C306.649 445.291 302.776 437.745 301.24 430.867C300.505 427.661 300.505 426.058 301.172 425.859C302.174 425.592 320.004 421.384 336.7 417.51C345.982 415.374 356.732 412.837 360.606 411.902C364.479 410.965 367.619 410.232 367.685 410.232ZM376.233 413.504L378.369 415.908C387.986 426.659 397.802 434.607 409.689 441.551C411.826 442.754 413.429 443.821 413.294 443.889C412.828 444.223 372.025 458.712 353.127 465.257C342.51 468.996 333.761 472.001 333.695 472.001C333.629 472.001 333.027 471.601 332.359 471.133L331.157 470.265L333.094 467.461C339.37 458.379 347.252 448.429 364.413 427.728L376.233 413.504ZM429.523 451.634C429.588 451.568 432.527 452.635 436.133 453.973C444.815 457.244 451.692 459.314 460.908 461.651C472.261 464.523 488.688 467.328 498.372 468.129C499.841 468.262 500.642 468.396 500.375 468.597C499.906 468.864 490.091 472.136 482.879 474.407C471.392 478.012 436.334 488.363 407.753 496.577C402.477 498.113 397.936 499.382 397.669 499.448C397.002 499.582 394.797 498.98 394.797 498.713C394.797 498.58 396.4 496.51 398.337 494.24C407.952 482.753 417.502 469.932 425.449 457.778C427.652 454.438 429.523 451.701 429.523 451.634ZM417.769 451.969C417.835 452.035 413.094 459.648 404.815 472.736C401.275 478.279 397.335 484.556 395.932 486.76C394.596 488.897 392.593 492.236 391.458 494.105L389.522 497.512L388.52 497.244C386.115 496.576 369.221 490.632 364.746 488.83C359.203 486.626 353.461 483.955 349.186 481.685C343.845 478.813 337.167 474.539 337.701 474.406C337.834 474.34 346.983 471.868 358.001 468.863C387.251 460.916 403.477 456.309 414.096 452.97C416.033 452.369 417.702 451.901 417.769 451.969ZM500.908 471.467H500.975C501.242 472.136 490.425 502.186 486.483 511.668C485.616 513.805 485.283 514.34 484.815 514.272C483.68 514.206 467.987 512.002 458.437 510.6C441.81 508.062 413.896 503.187 406.885 501.585L405.282 501.251L415.231 498.979C436.601 494.171 446.884 491.567 457.301 488.362C470.457 484.355 483.48 479.347 496.634 473.203C498.704 472.268 500.441 471.534 500.908 471.467Z" fill="url(#paint0_linear_1_16)"/>
<path d="M451.293 76.6042C449.823 76.405 426.116 84.9525 410.824 91.1622C390.189 99.5773 374.163 107.591 364.28 114.535C360.607 117.14 355.999 121.747 355.265 123.55C354.998 124.218 354.864 125.019 354.864 125.82L363.813 134.301L385.115 141.113L435.8 150.195L493.763 160.145L494.365 155.137C494.165 155.137 494.031 155.07 493.832 155.07L486.217 153.868L484.682 151.13C476.802 137.24 468.121 120.011 463.046 108.391C459.107 99.3759 455.367 88.9595 453.296 81.4799C452.161 76.939 452.028 76.672 451.294 76.6055V76.6039H451.293V76.6042ZM450.223 80.011H450.291C450.357 80.0769 450.624 81.948 450.892 84.1504C452.026 93.5007 454.098 102.514 457.369 112.265C459.84 119.61 459.84 119.21 456.969 118.341C450.157 116.472 419.64 111.197 397.536 108.125C393.997 107.657 390.991 107.19 390.991 107.123C390.724 106.856 406.951 98.3748 414.097 95.0367C423.245 90.8287 448.354 80.3445 450.223 80.011ZM385.848 109.928L388.454 110.795C402.61 115.604 438.202 122.415 457.836 124.018C460.039 124.218 461.91 124.419 461.976 124.419C462.042 124.486 460.174 125.487 457.769 126.622C448.287 131.363 437.869 137.173 430.657 141.648C428.521 142.983 426.583 144.052 426.317 144.052C426.05 144.052 424.648 143.785 423.179 143.584L420.508 143.183L413.83 136.638C402.077 125.22 392.861 116.405 389.322 113.065L385.848 109.928ZM383.178 111.997L392.594 123.751C397.735 130.228 402.944 136.572 404.08 137.974C405.215 139.377 406.15 140.513 406.084 140.579C405.816 140.779 392.461 138.174 385.382 136.573C378.103 134.903 375.098 134.101 370.624 132.7L366.951 131.497V130.562C367.017 126.087 372.694 119.41 382.31 112.599L383.178 111.997ZM463.179 128.024C463.446 128.024 463.779 128.625 464.581 130.428C466.851 135.436 473.931 148.926 475.666 151.53C476.201 152.399 477.135 152.466 467.72 150.93C445.083 147.256 437.803 146.055 437.803 145.922C437.803 145.855 438.471 145.387 439.339 144.92C446.351 141.047 453.429 136.105 459.707 130.829C461.243 129.56 462.645 128.358 462.911 128.158C462.978 128.024 463.112 127.958 463.179 128.024Z" fill="url(#paint1_linear_1_16)"/>
<path d="M355.731 122.615C355.731 122.615 354.263 124.953 355.665 128.426C356.534 130.562 359.071 133.166 361.942 135.838C361.942 135.838 391.658 164.819 395.265 168.96C411.691 187.925 418.837 206.623 419.505 232.4C419.906 248.961 416.766 263.519 408.954 280.414C395.064 310.732 365.747 344.188 320.539 381.317L327.151 379.113C331.424 375.907 337.234 372.503 350.857 365.023C382.309 347.793 417.702 331.967 461.108 315.673C523.612 292.166 626.385 264.653 684.882 255.706L690.96 254.77L690.025 253.301C684.683 245.02 681.009 239.879 676.602 234.403C663.781 218.509 648.223 205.622 629.19 194.937C603.012 180.313 569.154 168.894 526.284 160.413C518.204 158.809 500.44 155.738 486.016 153.534C455.431 148.794 435.665 145.521 413.895 141.782C406.083 140.446 394.396 138.443 386.649 136.774C382.643 135.905 374.964 134.102 368.954 132.032C364.146 130.161 357.2 128.291 355.731 122.615ZM372.961 139.31C373.027 139.245 374.095 139.644 375.498 140.112C378.036 140.979 381.308 141.981 385.182 143.05C388.113 143.856 391.051 144.635 393.997 145.387C398.003 146.388 401.342 147.323 401.408 147.323C401.876 147.791 408.621 169.359 410.892 177.64C411.759 180.779 412.428 183.45 412.361 183.45C412.292 183.518 411.559 182.382 410.691 180.846C402.878 167.089 390.524 153.133 376.233 141.913C374.364 140.579 372.961 139.377 372.961 139.31ZM405.816 148.392C406.15 148.392 407.619 148.593 409.421 148.993C420.774 151.531 441.142 155.404 454.163 157.608C456.367 157.941 458.104 158.343 458.104 158.476C458.104 158.61 457.302 159.076 456.3 159.611C454.097 160.746 445.215 166.021 442.277 168.025C434.864 172.966 428.187 178.309 423.379 183.116C421.442 185.053 419.772 186.656 419.772 186.656C419.772 186.656 419.372 185.521 419.037 184.118C416.635 174.836 411.625 161.079 407.084 151.397C406.35 149.861 405.748 148.458 405.748 148.325C405.748 148.459 405.748 148.392 405.816 148.392ZM463.646 159.411C464.047 159.544 464.714 161.815 466.05 166.823C468.521 176.506 469.656 187.324 469.256 197.408C469.121 200.212 468.988 202.816 468.854 203.151L468.654 203.818L465.182 202.683C458.036 200.413 446.417 197.006 436.468 194.202C430.791 192.666 426.184 191.264 426.184 191.131C426.184 190.729 434.465 182.449 438.004 179.311C444.747 173.367 463.044 159.21 463.646 159.411ZM468.254 160.078C468.454 159.879 495.9 164.619 508.388 167.023C517.671 168.826 531.16 171.631 531.961 171.965C532.361 172.098 530.959 172.9 526.484 174.903C508.855 182.85 495.766 189.994 482.745 198.676C479.34 200.947 476.468 202.816 476.401 202.816C476.335 202.816 476.268 200.88 476.268 198.543C476.268 185.855 473.73 173.033 469.055 162.215C468.587 161.147 468.187 160.145 468.254 160.078ZM539.239 174.102C539.44 174.302 538.571 179.712 537.77 182.917C535.366 192.867 528.889 207.626 520.943 221.515C519.539 223.986 518.271 225.989 518.137 226.056C518.004 226.122 516.201 225.12 514.131 223.918C506.385 219.377 497.57 215.104 487.953 211.097C485.283 209.962 482.945 209.026 482.878 208.894C482.41 208.493 503.913 194.269 515.266 187.457C524.281 181.982 538.972 173.834 539.239 174.102ZM544.314 174.903C544.915 174.903 557.069 178.242 563.412 180.112C579.106 184.787 597.136 191.398 608.889 196.74L613.763 198.944L610.358 199.745C581.644 206.356 557.069 213.969 533.362 223.585C531.426 224.386 529.689 225.054 529.557 225.054C529.423 225.054 530.091 223.519 530.959 221.648C538.104 206.49 542.712 190.663 543.846 177.173C543.914 175.904 544.113 174.903 544.314 174.903ZM423.312 202.683C423.512 202.483 432.794 204.687 437.803 206.088C445.415 208.226 461.575 213.634 461.575 214.035C461.575 214.102 459.773 215.638 457.637 217.508C448.889 224.787 440.474 232.466 430.39 242.216C427.385 245.088 424.848 247.425 424.715 247.425C424.58 247.425 424.515 247.024 424.58 246.49C426.116 235.27 425.783 220.847 423.646 206.222C423.445 204.352 423.245 202.75 423.312 202.683ZM618.373 202.884C618.505 203.017 614.098 209.962 611.294 213.901C607.288 219.644 601.409 227.258 588.12 243.953C581.11 252.767 573.229 262.718 570.626 266.056C567.953 269.395 565.75 272.199 565.683 272.199C565.616 272.199 564.749 270.998 563.814 269.529C556.334 258.31 547.385 248.493 536.768 239.679C534.764 238.009 532.562 236.206 531.827 235.671C531.092 235.137 530.491 234.603 530.491 234.537C530.491 234.337 541.842 229.461 550.458 225.989C565.55 219.845 586.116 212.5 601.543 207.758C609.624 205.221 618.238 202.75 618.373 202.884ZM623.514 204.219C623.78 204.153 625.384 204.954 627.32 206.088C643.548 215.37 659.44 227.324 671.996 239.612C675.535 243.085 684.283 252.167 684.148 252.233C684.148 252.233 681.077 252.5 677.471 252.767C649.357 254.904 613.364 260.847 578.772 269.194C576.435 269.728 574.366 270.195 574.232 270.195C574.099 270.195 576.703 267.591 579.976 264.453C600.276 244.887 609.559 232.533 620.509 210.496C622.045 207.224 623.381 204.42 623.514 204.219C623.447 204.219 623.447 204.219 623.514 204.219ZM474.798 219.445C475.733 219.644 484.414 223.719 490.958 226.991C496.969 229.995 505.984 234.804 506.451 235.204C506.518 235.27 503.312 236.94 499.374 238.877C486.818 245.154 476.067 251.097 464.848 257.908C461.643 259.845 458.972 261.449 458.905 261.449C458.638 261.449 458.704 261.18 460.508 257.908C466.518 246.958 471.325 233.869 474.064 221.114C474.33 220.112 474.598 219.445 474.798 219.445ZM466.116 221.047C466.317 221.248 464.047 229.461 462.645 233.935C459.906 242.416 455.299 253.034 450.825 261.048C449.755 262.916 448.153 265.655 447.285 267.19L445.616 269.861L441.876 266.256C437.536 262.049 433.996 259.445 429.456 257.107C427.652 256.173 426.25 255.371 426.25 255.238C426.25 254.704 437.669 244.353 446.417 236.874C452.694 231.465 465.916 220.847 466.116 221.047ZM519.207 242.884L522.479 245.02C529.957 249.896 538.771 256.373 545.517 262.049C549.322 265.187 556.668 271.799 558.138 273.402L558.938 274.271L553.53 275.806C522.945 284.286 499.306 291.832 471.726 301.983C468.654 303.118 466.05 304.053 465.849 304.053C465.45 304.053 465.114 304.386 471.994 298.042C489.624 281.816 505.249 263.919 516.869 246.489L519.207 242.884ZM505.249 246.357C505.383 246.49 496.234 259.378 490.758 266.657C484.214 275.338 472.594 289.896 464.581 299.377C461.242 303.318 458.371 306.59 458.237 306.657C458.036 306.724 457.97 305.722 457.97 304.186C457.97 296.105 455.9 287.491 452.294 280.146C450.758 277.074 450.49 276.339 450.825 276.006C452.094 274.87 471.526 263.785 483.813 257.174C492.094 252.767 505.047 246.223 505.249 246.357ZM420.84 267.058C421.041 267.058 422.577 267.859 424.314 268.794C428.587 271.131 432.394 273.735 435.799 276.541C435.932 276.674 434.197 278.077 431.926 279.745C425.582 284.286 415.966 291.566 410.358 296.04C404.48 300.714 404.281 300.848 404.948 299.846C409.356 293.102 411.558 289.295 413.897 284.421C415.966 280.081 418.036 274.938 419.505 270.464C420.039 268.527 420.707 267.058 420.84 267.058ZM443.346 284.687C443.679 284.621 444.081 285.221 445.883 287.893C449.689 293.568 452.627 301.182 453.363 307.325L453.495 308.662L444.348 312.201C427.986 318.544 412.895 324.822 402.676 329.496C399.806 330.832 394.797 333.235 391.526 334.839C388.253 336.508 385.582 337.777 385.582 337.71C385.582 337.644 387.652 336.107 390.189 334.237C410.157 319.747 427.452 303.853 440.407 287.96C441.81 286.29 443.079 284.754 443.211 284.687L443.346 284.687ZM432.995 287.225C433.262 287.492 425.65 296.106 420.441 301.382C407.553 314.538 394.798 324.822 378.971 334.839C376.968 336.107 375.165 337.242 374.964 337.377C374.496 337.643 375.097 336.975 382.043 329.429C386.45 324.688 389.789 320.681 393.595 315.74C396.133 312.469 396.6 312.001 400.274 309.395C410.091 302.317 432.728 286.958 432.995 287.225Z" fill="url(#paint2_radial_1_16)"/>
<path d="M143.822 563.958C142.59 563.958 141.358 564.076 140.137 564.076C115.255 565.402 98.4736 576.352 88.6617 597.736C80.2699 617.075 81.1861 642.355 88.7559 661.813C97.5585 680.826 111.782 690.861 135.524 694.651C140.547 695.473 143.916 698.231 153.645 709.591L165.616 723.616H187.328L172.891 709.062C164.911 701.082 158.456 694.134 158.456 693.523C158.456 692.913 161.509 691.576 165.204 690.449C177.386 686.763 187.503 677.351 194.58 662.927C200.307 651.345 201.129 647.764 201.95 633.353C204.098 590.458 181.482 563.639 143.821 563.946L143.822 563.958ZM162.857 676.132C152.295 681.248 136.957 682.27 126.946 678.597C116.594 674.795 106.572 664.044 102.064 651.874C97.053 638.565 97.7685 614.014 103.496 602.957C112.709 585.353 124.892 577.256 142.695 577.256C169.101 577.256 184.123 593.429 186.083 623.825C187.633 649.199 179.135 668.234 162.869 676.122L162.857 676.132ZM537.921 600.598C528.814 600.598 521.843 604.285 517.147 611.547L513.462 617.299V602.347H497.701V692.011H513.452V663.352C513.452 637.145 513.779 634.081 517.441 626.91C522.489 617.075 531.172 612.171 539.565 614.518L545.198 616.161V600.622H537.921V600.598ZM445.323 599.776C442.236 599.776 438.961 600.188 435.7 600.904C414.609 606.419 402.721 626.605 403.448 647.379C403.448 664.772 406.827 673.468 415.22 682.587C432.414 696.694 447.964 697.82 468.948 690.251C472.528 688.726 476.424 686.965 476.424 686.965V672.859L468.948 676.732C451.965 684.125 439.173 684.125 428.927 675.416C422.391 668.762 419.515 660.781 418.189 651.675H481.74V639.585C481.74 614.94 466.906 599.378 445.31 599.776H445.323ZM419.621 639.093C419.621 639.093 421.969 623.719 430.676 617.686C434.867 614.728 439.678 613.297 444.384 613.297C449.103 613.297 453.808 614.822 457.693 617.792C465.675 623.93 467.012 638.977 467.012 638.977H419.621L419.621 639.093ZM39.6394 622.921C22.5522 612.569 14.9705 605.105 15.8976 596.302C18.5495 571.95 48.6417 575.319 65.3063 584.532L65.4248 568.149C65.4248 568.149 56.2115 564.159 43.0078 563.947C22.7513 563.642 9.65379 570.284 3.5166 583.804C-5.4976 603.755 2.484 618.801 31.332 635.584C47.5274 645.008 54.6858 653.188 54.6858 662.107C54.6858 680.533 32.4696 686.965 9.54934 675.405C4.83226 673.057 0.841458 671.097 0.63039 671.097C-0.19169 676.32 0.232068 688.819 0.232068 688.819C0.232068 688.819 7.27414 691.777 17.8356 693.817C44.0296 699.04 67.8667 686.752 70.1197 666.801C72.0799 648.071 65.3068 638.247 39.6405 622.908L39.6394 622.921ZM677.417 599.566C674.342 599.566 671.079 599.988 667.675 600.704C646.61 606.22 634.743 626.407 635.553 647.18C635.553 664.55 638.922 673.163 647.313 682.27C664.507 696.39 680.057 697.527 701.147 689.947C704.715 688.421 708.6 686.685 708.6 686.685V672.555L701.136 676.45C684.119 683.821 671.326 683.821 661.116 675.113C654.543 668.47 651.691 660.583 650.365 651.37H713.811V639.282C713.811 614.754 698.975 599.179 677.381 599.591L677.417 599.566ZM651.714 638.882C651.714 638.882 654.085 623.531 662.781 617.381C666.96 614.412 671.771 612.979 676.477 612.979C681.172 612.979 685.902 614.505 689.788 617.486C697.768 623.624 699.106 638.776 699.106 638.776H651.727L651.714 638.882ZM362.818 623.12C345.73 612.793 338.172 605.304 339.087 596.502C341.739 572.137 371.832 575.518 388.496 584.731L388.614 568.348C388.614 568.348 379.401 564.357 366.197 564.169C345.941 563.864 332.843 570.507 326.695 584.026C317.693 603.977 325.779 619.024 354.532 635.807C370.706 645.22 377.864 653.294 377.864 662.213C377.864 680.639 355.659 687.176 332.738 675.51C328.044 673.162 324.054 671.225 323.819 671.225C322.997 676.447 323.421 688.948 323.421 688.948C323.421 688.948 330.38 691.8 340.907 693.947C367.126 699.181 390.974 686.904 393.216 666.953C395.164 648.316 388.404 638.493 362.818 623.142L362.818 623.12ZM770.027 600.387C760.919 600.387 753.867 604.083 749.254 611.349L745.568 617.076V602.148H729.806V691.788H745.556V663.13C745.556 636.934 745.872 633.859 749.548 626.7C754.594 616.877 763.277 611.96 771.669 614.318L777.302 615.961V600.388L770.027 600.387ZM237.476 622.604V565.495H221.586V691.988H288.412V677.049H237.477L237.476 622.604ZM604.958 640.407L591.86 674.489L579.267 640.219L566.474 602.242H550.209C560.749 632.122 572.213 662.518 583.774 691.988C588.785 692.105 593.808 691.988 598.819 691.988L616.506 647.578L634.521 602.253H618.971C618.971 602.253 612.104 620.256 604.947 640.419L604.958 640.407ZM9.75878 521.907C9.75878 517.917 9.64188 514.948 9.54772 513.199H9.64188C10.0521 515.263 10.5571 516.802 10.9678 517.823L26.2242 551.905H28.783L44.0394 517.518C44.4512 516.58 44.862 515.171 45.3664 513.211H45.4833C45.1786 516.615 45.0731 519.572 45.0731 521.93V552.011H50.2945V507.296H43.746L29.722 538.396C29.2051 539.628 28.4891 541.472 27.574 543.913H27.3618C27.0571 542.704 26.3411 540.861 25.3204 538.607L11.6118 507.189H4.65312V551.904H9.67598V521.929L9.75878 521.907ZM61.7382 521.991H66.2458V549.839H61.7382V521.991ZM63.9917 511.779C64.9313 511.779 65.729 511.461 66.3389 510.841C66.9613 510.23 67.3726 509.432 67.3726 508.494C67.3726 507.578 67.0668 506.756 66.3514 506.146C65.7176 505.524 64.9074 505.206 63.9804 505.206C63.0657 505.206 62.2442 505.524 61.6326 506.146C61.0124 506.756 60.6006 507.578 60.6006 508.494C60.6006 509.515 60.9177 510.23 61.6326 510.841C62.3384 511.461 63.0652 511.779 63.9804 511.779H63.9917ZM98.3795 550.451V545.544C95.9143 547.387 93.2619 548.303 90.5159 548.303C87.2308 548.303 84.5654 547.177 82.6171 545.018C80.6812 542.882 79.6486 539.911 79.6486 536.215C79.6486 532.342 80.6812 529.266 82.8168 526.919C84.8706 524.666 87.5355 523.539 90.7984 523.539C93.4621 523.539 96.0193 524.361 98.38 526.005V520.783C96.2325 519.656 93.7798 519.139 91.0094 519.139C85.8919 519.139 81.9027 520.783 78.9218 523.952C75.9636 527.121 74.4379 531.428 74.4379 536.627C74.4379 541.251 75.7639 545.136 78.5229 548.105C81.3978 551.156 85.0725 552.706 89.5785 552.706C93.0627 552.609 95.9143 551.881 98.3795 550.451ZM111.277 535.604C111.277 531.93 112.098 528.962 113.624 526.918C115.057 525.076 116.793 524.149 118.847 524.149C120.584 524.149 121.816 524.466 122.719 525.182V519.853C122.015 519.549 120.994 519.443 119.668 519.443C117.825 519.443 116.183 520.063 114.739 521.204C113.214 522.411 111.993 524.255 111.277 526.602H111.16V520.064H106.055V551.987H111.172V535.604H111.277ZM140.652 552.621C145.465 552.621 149.338 551.071 152.212 547.997C155.075 544.944 156.507 540.838 156.507 535.72C156.507 530.499 155.194 526.508 152.518 523.537C149.866 520.57 146.18 519.136 141.367 519.136C136.555 519.136 132.682 520.569 129.807 523.338C126.733 526.391 125.113 530.698 125.113 536.226C125.113 541.037 126.428 545.028 129.198 547.997C132.061 551.071 135.852 552.609 140.652 552.609V552.621ZM133.376 526.613C135.324 524.56 137.884 523.538 141.051 523.538C144.339 523.538 146.803 524.56 148.634 526.613C150.476 528.761 151.392 531.825 151.392 535.92C151.392 539.816 150.57 542.88 148.833 544.934C147.097 547.082 144.538 548.219 141.157 548.219C137.871 548.219 135.324 547.08 133.376 544.934C131.44 542.774 130.513 539.816 130.513 535.92C130.313 532.048 131.335 528.879 133.376 526.613ZM178.913 549.839C180.861 548.103 181.895 545.967 181.895 543.29C181.895 540.943 181.072 538.995 179.547 537.457C178.302 536.226 176.379 535.11 173.597 533.983C171.131 532.952 169.606 532.035 168.784 531.319C167.963 530.498 167.458 529.478 167.458 528.034C167.458 526.708 167.975 525.686 168.985 524.865C170.017 524.044 171.332 523.645 173.092 523.645C175.85 523.645 178.209 524.372 180.368 525.91V520.793C178.303 519.761 176.061 519.268 173.502 519.268C170.217 519.268 167.447 520.173 165.404 521.92C163.256 523.658 162.235 525.911 162.235 528.562C162.235 530.909 162.939 532.858 164.276 534.289C165.403 535.51 167.329 536.755 170.004 537.869C172.563 538.996 174.3 540.016 175.226 540.837C176.142 541.66 176.552 542.68 176.552 543.89C176.552 546.87 174.511 548.409 170.52 548.409C167.445 548.409 164.688 547.399 162.222 545.357V550.872C164.452 552.211 167.128 552.82 170.086 552.82C173.877 552.621 176.845 551.694 178.888 549.851L178.913 549.839ZM203.277 519.137C198.464 519.137 194.592 520.57 191.717 523.339C188.665 526.392 187.022 530.699 187.022 536.227C187.022 541.039 188.349 545.029 191.107 547.998C193.982 551.072 197.761 552.61 202.573 552.61C207.502 552.61 211.258 551.062 214.133 547.985C217.009 544.935 218.44 540.827 218.44 535.709C218.44 530.487 217.102 526.497 214.449 523.528C211.681 520.558 207.994 519.126 203.3 519.126L203.277 519.137ZM213.206 535.921C213.206 539.817 212.384 542.88 210.647 544.934C208.91 547.082 206.351 548.22 202.971 548.22C199.684 548.22 197.138 547.081 195.189 544.934C193.253 542.775 192.326 539.817 192.326 535.921C192.326 531.813 193.348 528.645 195.402 526.508C197.337 524.466 199.897 523.433 203.077 523.433C206.245 523.433 208.793 524.465 210.634 526.508C212.278 528.761 213.194 531.825 213.194 535.921H213.206ZM227.032 551.893H232.137V524.255H239.612V519.959H232.136V515.03C232.136 510.548 233.872 508.294 237.464 508.294C238.673 508.294 239.906 508.599 240.821 509.116V504.504C239.906 504.094 238.673 504 237.135 504C234.377 504 232.124 504.822 230.281 506.558C228.133 508.6 226.995 511.253 226.995 514.845V520.08H221.595V524.374H226.995V551.908L227.032 551.893ZM248.003 543.185C248.003 549.429 250.762 552.609 256.395 552.609C258.437 552.609 259.974 552.281 261.207 551.553V547.164C260.268 547.869 259.153 548.198 257.921 548.198C256.185 548.198 254.964 547.786 254.247 546.859C253.519 545.944 253.109 544.394 253.109 542.258V524.244H261.206V519.947H253.109V510.536C251.349 511.146 249.624 511.663 247.992 512.178V519.947H242.476V524.243H247.992V543.174L248.003 543.185Z" fill="white"/>
</g>
<defs>
<linearGradient id="paint0_linear_1_16" x1="354.367" y1="474.123" x2="386.313" y2="455.247" gradientUnits="userSpaceOnUse">
<stop stop-color="#909CA9"/>
<stop offset="1" stop-color="#EDEDEE"/>
</linearGradient>
<linearGradient id="paint1_linear_1_16" x1="355.098" y1="118.244" x2="380.803" y2="118.244" gradientUnits="userSpaceOnUse">
<stop stop-color="#939FAB"/>
<stop offset="1" stop-color="#DCDEE1"/>
</linearGradient>
<radialGradient id="paint2_radial_1_16" cx="0" cy="0" r="1" gradientTransform="matrix(-32.7734 -4.92292 -9.95647 65.5468 484.807 236.136)" gradientUnits="userSpaceOnUse">
<stop stop-color="#EE352C"/>
<stop offset="1" stop-color="#A91D22"/>
</radialGradient>
<clipPath id="clip0_1_16">
<rect width="800" height="800" fill="white"/>
</clipPath>
</defs>
</svg>
